<?xml version="1.0" encoding="UTF-8"?>
<svg xmlns="http://www.w3.org/2000/svg" xmlns:xlink="http://www.w3.org/1999/xlink" width="224pt" height="256pt" viewBox="0 0 224 256" version="1.1">
<g id="surface1">
<path style=" stroke:none;fill-rule:nonzero;fill:rgb(0%,0%,0%);fill-opacity:1;" d="M 224 180 L 224 12 C 224 5.351563 218.648438 0 212 0 L 48 0 C 21.5 0 0 21.5 0 48 L 0 208 C 0 234.5 21.5 256 48 256 L 212 256 C 218.648438 256 224 250.648438 224 244 L 224 236 C 224 232.25 222.25 228.851563 219.550781 226.648438 C 217.449219 218.949219 217.449219 197 219.550781 189.300781 C 222.25 187.148438 224 183.75 224 180 Z M 64 67 C 64 65.351563 65.351563 64 67 64 L 173 64 C 174.648438 64 176 65.351563 176 67 L 176 77 C 176 78.648438 174.648438 80 173 80 L 67 80 C 65.351563 80 64 78.648438 64 77 Z M 64 99 C 64 97.351563 65.351563 96 67 96 L 173 96 C 174.648438 96 176 97.351563 176 99 L 176 109 C 176 110.648438 174.648438 112 173 112 L 67 112 C 65.351563 112 64 110.648438 64 109 Z M 190.699219 224 L 48 224 C 39.148438 224 32 216.851563 32 208 C 32 199.199219 39.199219 192 48 192 L 190.699219 192 C 189.75 200.550781 189.75 215.449219 190.699219 224 Z M 190.699219 224 "/>
</g>
</svg>
