<?xml version="1.0" encoding="UTF-8"?>
<svg xmlns="http://www.w3.org/2000/svg" xmlns:xlink="http://www.w3.org/1999/xlink" width="192pt" height="256pt" viewBox="0 0 192 256" version="1.1">
<g id="surface11">
<path style=" stroke:none;fill-rule:nonzero;fill:rgb(0%,0%,0%);fill-opacity:1;" d="M 112 68 L 112 0 L 12 0 C 5.351563 0 0 5.351563 0 12 L 0 244 C 0 250.648438 5.351563 256 12 256 L 180 256 C 186.648438 256 192 250.648438 192 244 L 192 80 L 124 80 C 117.398438 80 112 74.601563 112 68 Z M 144 186 C 144 189.300781 141.300781 192 138 192 L 54 192 C 50.699219 192 48 189.300781 48 186 L 48 182 C 48 178.699219 50.699219 176 54 176 L 138 176 C 141.300781 176 144 178.699219 144 182 Z M 144 154 C 144 157.300781 141.300781 160 138 160 L 54 160 C 50.699219 160 48 157.300781 48 154 L 48 150 C 48 146.699219 50.699219 144 54 144 L 138 144 C 141.300781 144 144 146.699219 144 150 Z M 144 118 L 144 122 C 144 125.300781 141.300781 128 138 128 L 54 128 C 50.699219 128 48 125.300781 48 122 L 48 118 C 48 114.699219 50.699219 112 54 112 L 138 112 C 141.300781 112 144 114.699219 144 118 Z M 192 60.949219 L 192 64 L 128 64 L 128 0 L 131.050781 0 C 134.25 0 137.300781 1.25 139.550781 3.5 L 188.5 52.5 C 190.75 54.75 192 57.800781 192 60.949219 Z M 192 60.949219 "/>
</g>
</svg>
