<?xml version="1.0" encoding="UTF-8"?>
<svg xmlns="http://www.w3.org/2000/svg" xmlns:xlink="http://www.w3.org/1999/xlink" width="256pt" height="256pt" viewBox="0 0 256 256" version="1.1">
<g id="surface6">
<path style=" stroke:none;fill-rule:nonzero;fill:rgb(0%,0%,0%);fill-opacity:1;" d="M 82.449219 12.300781 C 78.601562 3 68.449219 -1.949219 58.75 0.699219 L 14.75 12.699219 C 6.050781 15.101562 0 23 0 32 C 0 155.699219 100.300781 256 224 256 C 233 256 240.898438 249.949219 243.300781 241.25 L 255.300781 197.25 C 257.949219 187.550781 253 177.398438 243.699219 173.550781 L 195.699219 153.550781 C 187.550781 150.148438 178.101562 152.5 172.550781 159.351562 L 152.351562 184 C 117.148438 167.351562 88.648438 138.851562 72 103.648438 L 96.648438 83.5 C 103.5 77.898438 105.851562 68.5 102.449219 60.351562 L 82.449219 12.351562 Z M 82.449219 12.300781 "/>
</g>
</svg>
