<?xml version="1.0" encoding="UTF-8"?>
<svg xmlns="http://www.w3.org/2000/svg" xmlns:xlink="http://www.w3.org/1999/xlink" width="256pt" height="256pt" viewBox="0 0 256 256" version="1.1">
<g id="surface11">
<path style=" stroke:none;fill-rule:nonzero;fill:rgb(0%,0%,0%);fill-opacity:1;" d="M 32 56 C 27.601562 56 24 59.601562 24 64 L 24 75.050781 L 110.25 145.851562 C 120.601562 154.351562 135.449219 154.351562 145.800781 145.851562 L 232 75.050781 L 232 64 C 232 59.601562 228.398438 56 224 56 Z M 24 106.101562 L 24 192 C 24 196.398438 27.601562 200 32 200 L 224 200 C 228.398438 200 232 196.398438 232 192 L 232 106.101562 L 161 164.398438 C 141.800781 180.148438 114.148438 180.148438 95 164.398438 Z M 0 64 C 0 46.351562 14.351562 32 32 32 L 224 32 C 241.648438 32 256 46.351562 256 64 L 256 192 C 256 209.648438 241.648438 224 224 224 L 32 224 C 14.351562 224 0 209.648438 0 192 Z M 0 64 "/>
</g>
</svg>
