<?xml version="1.0" encoding="UTF-8"?>
<svg xmlns="http://www.w3.org/2000/svg" xmlns:xlink="http://www.w3.org/1999/xlink" width="256pt" height="256pt" viewBox="0 0 256 256" version="1.1">
<g id="surface1">
<path style=" stroke:none;fill-rule:nonzero;fill:rgb(0%,0%,0%);fill-opacity:1;" d="M 246.699219 12.300781 L 194.699219 0.300781 C 189.050781 -1 183.25 1.949219 180.949219 7.25 L 156.949219 63.25 C 154.851563 68.148438 156.25 73.898438 160.398438 77.25 L 190.699219 102.050781 C 172.699219 140.398438 141.25 172.300781 102.101563 190.648438 L 77.300781 160.351563 C 73.898438 156.199219 68.199219 154.800781 63.300781 156.898438 L 7.300781 180.898438 C 1.949219 183.25 -1 189.050781 0.300781 194.699219 L 12.300781 246.699219 C 13.550781 252.101563 18.351563 256 24 256 C 152.050781 256 256 152.25 256 24 C 256 18.398438 252.148438 13.550781 246.699219 12.300781 Z M 246.699219 12.300781 "/>
</g>
</svg>
