<?xml version="1.0" encoding="UTF-8"?>
<svg xmlns="http://www.w3.org/2000/svg" xmlns:xlink="http://www.w3.org/1999/xlink" width="288pt" height="256pt" viewBox="0 0 288 256" version="1.1">
<g id="surface6">
<path style=" stroke:none;fill-rule:nonzero;fill:rgb(0%,0%,0%);fill-opacity:1;" d="M 140.183594 74.128906 L 48 150.054688 L 48 232 C 48 236.417969 51.582031 240 56 240 L 112.03125 239.855469 C 116.433594 239.832031 119.988281 236.257813 119.988281 231.855469 L 119.988281 184 C 119.988281 179.582031 123.570313 176 127.988281 176 L 159.988281 176 C 164.410156 176 167.988281 179.582031 167.988281 184 L 167.988281 231.820313 C 167.984375 233.945313 168.824219 235.988281 170.324219 237.492188 C 171.824219 239 173.863281 239.84375 175.988281 239.84375 L 232 240 C 236.417969 240 240 236.417969 240 232 L 240 150 L 147.835938 74.128906 C 145.601563 72.332031 142.417969 72.332031 140.183594 74.128906 Z M 285.800781 125.734375 L 244 91.28125 L 244 22.023438 C 244 18.710938 241.3125 16.023438 238 16.023438 L 210 16.023438 C 206.6875 16.023438 204 18.710938 204 22.023438 L 204 58.328125 L 159.234375 21.5 C 150.375 14.210938 137.59375 14.210938 128.734375 21.5 L 2.171875 125.734375 C -0.386719 127.847656 -0.742188 131.632813 1.371094 134.183594 L 14.121094 149.683594 C 15.132813 150.914063 16.59375 151.691406 18.179688 151.847656 C 19.765625 152 21.347656 151.515625 22.574219 150.5 L 140.183594 53.628906 C 142.417969 51.832031 145.601563 51.832031 147.835938 53.628906 L 265.449219 150.5 C 268.003906 152.613281 271.789063 152.253906 273.898438 149.699219 L 286.648438 134.199219 C 287.664063 132.964844 288.144531 131.378906 287.984375 129.789063 C 287.824219 128.203125 287.039063 126.742188 285.800781 125.734375 Z M 285.800781 125.734375 "/>
</g>
</svg>
