<?xml version="1.0" encoding="UTF-8"?>
<svg xmlns="http://www.w3.org/2000/svg" xmlns:xlink="http://www.w3.org/1999/xlink" width="320pt" height="256pt" viewBox="0 0 320 256" version="1.1">
<g id="surface6">
<path style=" stroke:none;fill-rule:nonzero;fill:rgb(0%,0%,0%);fill-opacity:1;" d="M 24 0 C 10.765625 0 0 10.765625 0 24 L 0 56 C 0 60.421875 3.578125 64 8 64 L 48 64 L 48 24 C 48 10.765625 37.234375 0 24 0 Z M 128 206.285156 L 128 176 L 272 176 L 272 48 C 272 21.53125 250.46875 0 224 0 L 55.796875 0 C 60.871094 6.703125 64 14.960938 64 24 L 64 208 C 64 227.433594 81.324219 242.824219 101.375 239.558594 C 117.109375 237 128 222.230469 128 206.285156 Z M 144 192 L 144 208 C 144 234.464844 122.46875 256 96 256 L 264 256 C 294.929688 256 320 230.929688 320 200 C 320 195.578125 316.421875 192 312 192 Z M 144 192 "/>
</g>
</svg>
