<?xml version="1.0" encoding="UTF-8"?>
<svg xmlns="http://www.w3.org/2000/svg" xmlns:xlink="http://www.w3.org/1999/xlink" width="288pt" height="256pt" viewBox="0 0 288 256" version="1.1">
<g id="surface26">
<path style=" stroke:none;fill-rule:nonzero;fill:rgb(0%,0%,0%);fill-opacity:1;" d="M 0 40 L 0 64 C 0 72.851562 7.148438 80 16 80 L 48 80 L 48 40 C 48 26.75 37.25 16 24 16 C 10.75 16 0 26.75 0 40 Z M 56 16 C 61 22.699219 64 31 64 40 L 64 192 C 64 209.648438 78.351562 224 96 224 C 113.648438 224 128 209.648438 128 192 L 128 189.351562 C 128 173.148438 141.148438 160 157.351562 160 L 240 160 L 240 64 C 240 37.5 218.5 16 192 16 Z M 232 240 C 262.949219 240 288 214.949219 288 184 C 288 179.601562 284.398438 176 280 176 L 157.351562 176 C 150 176 144 181.949219 144 189.351562 L 144 192 C 144 218.5 122.5 240 96 240 Z M 232 240 "/>
</g>
</svg>
