<?xml version="1.0" encoding="UTF-8"?>
<svg xmlns="http://www.w3.org/2000/svg" xmlns:xlink="http://www.w3.org/1999/xlink" width="192pt" height="256pt" viewBox="0 0 192 256" version="1.1">
<g id="surface31">
<path style=" stroke:none;fill-rule:nonzero;fill:rgb(0%,0%,0%);fill-opacity:1;" d="M 182.648438 46.691406 L 145.335938 9.371094 C 139.300781 3.371094 131.148438 0 122.699219 0 L 32 0 C 14.324219 0 0 14.324219 0 32 L 0.00390625 224 C 0.00390625 241.671875 14.328125 256 32.003906 256 L 160 256 C 177.601562 256 192 241.601562 192 224 L 192 69.300781 C 192 60.851562 188.648438 52.699219 182.648438 46.691406 Z M 168 224 C 168 228.417969 164.417969 232 160 232 L 32.011719 232 C 27.589844 232 24.011719 228.417969 24.011719 224 L 24 32.066406 C 24 27.648438 27.582031 24.066406 32 24.066406 L 112 24.066406 L 112 64 C 112 72.835938 119.164062 80 128 80 L 167.550781 80 L 167.550781 224 Z M 48 140 C 48 146.648438 53.398438 152 60 152 L 132 152 C 138.648438 152 144 146.648438 144 140 C 144 133.351562 138.648438 128 132 128 L 60 128 C 53.398438 128 48 133.398438 48 140 Z M 132 176 L 60 176 C 53.398438 176 48 181.398438 48 188 C 48 194.601562 53.375 200 60 200 L 132 200 C 138.625 200 144 194.625 144 188 C 144 181.375 138.648438 176 132 176 Z M 132 176 "/>
</g>
</svg>
