<?xml version="1.0" encoding="UTF-8"?>
<svg xmlns="http://www.w3.org/2000/svg" xmlns:xlink="http://www.w3.org/1999/xlink" width="256pt" height="256pt" viewBox="0 0 256 256" version="1.1">
<g id="surface1">
<path style=" stroke:none;fill-rule:nonzero;fill:rgb(0%,0%,0%);fill-opacity:1;" d="M 251.148438 95.398438 C 253.101563 93.851563 256 95.300781 256 97.75 L 256 200 C 256 213.25 245.25 224 232 224 L 24 224 C 10.75 224 0 213.25 0 200 L 0 97.800781 C 0 95.300781 2.851563 93.898438 4.851563 95.449219 C 16.050781 104.148438 30.898438 115.199219 81.898438 152.25 C 92.449219 159.949219 110.25 176.148438 128 176.050781 C 145.851563 176.199219 164 159.648438 174.148438 152.25 C 225.148438 115.199219 239.949219 104.101563 251.148438 95.398438 Z M 128 160 C 139.601563 160.199219 156.300781 145.398438 164.699219 139.300781 C 231.050781 91.148438 236.101563 86.949219 251.398438 74.949219 C 254.300781 72.699219 256 69.199219 256 65.5 L 256 56 C 256 42.75 245.25 32 232 32 L 24 32 C 10.75 32 0 42.75 0 56 L 0 65.5 C 0 69.199219 1.699219 72.648438 4.601563 74.949219 C 19.898438 86.898438 24.949219 91.148438 91.300781 139.300781 C 99.699219 145.398438 116.398438 160.199219 128 160 Z M 128 160 "/>
</g>
</svg>
