<?xml version="1.0" encoding="UTF-8"?>
<svg xmlns="http://www.w3.org/2000/svg" xmlns:xlink="http://www.w3.org/1999/xlink" width="288pt" height="256pt" viewBox="0 0 288 256" version="1.1">
<g id="surface16">
<path style=" stroke:none;fill-rule:nonzero;fill:rgb(0%,0%,0%);fill-opacity:1;" d="M 287.898438 127.75 C 287.898438 136.75 280.398438 143.800781 271.898438 143.800781 L 255.898438 143.800781 L 256.25 223.898438 C 256.25 225.25 256.148438 226.601562 256 227.949219 L 256 236 C 256 247.050781 247.050781 256 236 256 L 228 256 C 227.449219 256 226.898438 256 226.351562 255.949219 C 225.648438 256 224.949219 256 224.25 256 L 196 256 C 184.949219 256 176 247.050781 176 236 L 176 192 C 176 183.148438 168.851562 176 160 176 L 128 176 C 119.148438 176 112 183.148438 112 192 L 112 236 C 112 247.050781 103.050781 256 92 256 L 64.050781 256 C 63.300781 256 62.550781 255.949219 61.800781 255.898438 C 61.199219 255.949219 60.601562 256 60 256 L 52 256 C 40.949219 256 32 247.050781 32 236 L 32 180 C 32 179.550781 32 179.050781 32.050781 178.601562 L 32.050781 143.800781 L 16 143.800781 C 7 143.800781 0 136.800781 0 127.75 C 0 123.25 1.5 119.25 5 115.75 L 133.199219 4 C 136.699219 0.5 140.699219 0 144.199219 0 C 147.699219 0 151.699219 1 154.699219 3.5 L 282.398438 115.75 C 286.398438 119.25 288.398438 123.25 287.898438 127.75 Z M 287.898438 127.75 "/>
</g>
</svg>
